<?xml version="1.0" standalone="no"?>
<!DOCTYPE svg PUBLIC "-//W3C//DTD SVG 20010904//EN"
 "http://www.w3.org/TR/2001/REC-SVG-20010904/DTD/svg10.dtd">
<svg version="1.0" xmlns="http://www.w3.org/2000/svg"
 width="205.000000pt" height="102.000000pt" viewBox="0 0 205.000000 102.000000"
 preserveAspectRatio="xMidYMid meet">

<g transform="translate(0.000000,102.000000) scale(0.100000,-0.100000)"
fill="#000000" stroke="none">
<path d="M10 500 l0 -500 1020 0 1020 0 0 500 0 500 -1020 0 -1020 0 0 -500z
m1835 390 c35 -39 -7 -99 -61 -86 -14 4 -30 17 -36 31 -25 56 54 102 97 55z
m-1235 -125 c0 -36 -3 -65 -7 -65 -5 0 -16 18 -26 39 -18 39 -47 58 -97 63
-25 3 -25 2 -28 -74 -2 -65 0 -78 13 -78 23 0 55 37 55 65 0 14 5 25 10 25 6
0 10 -40 10 -100 0 -60 -4 -100 -10 -100 -5 0 -10 11 -10 25 0 28 -32 65 -55
65 -12 0 -15 -16 -15 -85 0 -94 2 -97 63 -71 35 14 87 69 87 91 0 8 5 17 10
20 6 4 10 -22 10 -69 l0 -76 -196 0 c-127 0 -193 3 -189 10 3 6 15 10 26 10
19 0 19 7 17 173 -3 170 -3 172 -26 175 -12 2 -20 8 -17 13 4 5 88 9 191 9
l184 0 0 -65z m910 -120 c0 -158 2 -185 15 -185 8 0 15 -4 15 -10 0 -6 -42
-10 -105 -10 -63 0 -105 4 -105 10 0 6 9 10 20 10 19 0 20 7 20 171 0 162 -1
171 -20 176 -47 12 -14 23 70 23 l90 0 0 -185z m-212 68 c2 -14 -4 -27 -16
-34 -20 -12 -20 -13 4 -32 35 -27 30 -82 -9 -111 -23 -17 -43 -21 -108 -21
-76 0 -99 -7 -61 -19 9 -3 48 -5 85 -5 77 1 111 -15 121 -57 9 -34 -9 -78 -40
-99 -38 -25 -119 -36 -172 -24 -69 15 -80 29 -80 106 0 57 3 68 24 88 19 18
21 24 10 28 -8 3 -22 17 -32 32 -36 55 24 115 119 121 38 2 52 8 68 29 27 34
82 33 87 -2z m-380 -45 c39 -19 53 -54 49 -125 -2 -48 0 -60 9 -52 8 6 14 6
18 0 3 -5 -8 -21 -25 -35 -32 -27 -76 -34 -109 -16 -13 7 -33 6 -63 -2 -56
-14 -103 -3 -129 33 -24 31 -12 71 27 92 24 12 25 15 11 26 -33 28 -11 81 39
94 32 9 143 -1 173 -15z m851 4 c36 -18 65 -52 76 -89 6 -22 4 -23 -70 -23
l-76 0 3 -47 c3 -44 5 -48 30 -51 18 -2 37 6 61 27 39 35 47 38 47 16 0 -9
-21 -29 -47 -45 -56 -36 -115 -39 -172 -11 -48 25 -71 60 -71 109 0 49 29 88
84 113 52 23 92 24 135 1z m-301 -389 c-15 -2 -42 -2 -60 0 -18 2 -6 4 27 4
33 0 48 -2 33 -4z m315 0 c-51 -2 -135 -2 -185 0 -51 1 -10 3 92 3 102 0 143
-2 93 -3z m-1466 -29 c2 -7 -8 -9 -27 -6 -23 3 -30 1 -30 -13 0 -13 6 -16 25
-13 19 4 25 1 25 -12 0 -13 -6 -16 -25 -12 -18 3 -25 0 -25 -12 0 -22 27 -31
45 -16 12 10 15 9 15 -4 0 -12 -10 -16 -42 -16 l-43 0 0 60 0 61 39 -3 c22 -2
41 -8 43 -14z m269 -47 c2 -43 -2 -57 -12 -57 -10 0 -14 15 -14 61 0 44 3 60
13 56 7 -2 13 -25 13 -60z m358 47 c5 -12 1 -14 -15 -9 -20 7 -21 4 -18 -44 4
-46 2 -51 -16 -51 -18 0 -20 5 -16 51 3 48 2 51 -18 44 -16 -5 -20 -3 -15 9 4
11 19 16 49 16 30 0 45 -5 49 -16z m246 -4 c0 -13 7 -20 20 -20 22 0 22 0 26
-47 1 -23 -2 -33 -12 -33 -9 0 -14 12 -14 36 0 23 -4 33 -11 28 -6 -3 -9 -19
-7 -35 3 -22 0 -29 -11 -29 -13 0 -16 12 -16 60 0 41 4 60 13 60 6 0 12 -9 12
-20z m322 -40 c2 -48 0 -60 -12 -60 -12 0 -15 13 -15 60 0 81 22 81 27 0z
m-472 0 c0 -6 -12 -10 -26 -10 -16 0 -24 -5 -21 -12 2 -7 14 -12 26 -10 15 1
21 -3 19 -10 -6 -18 -36 -22 -53 -8 -34 28 -1 90 36 70 10 -6 19 -15 19 -20z
m90 2 c0 -12 -3 -13 -12 -4 -19 19 -28 14 -28 -14 0 -22 4 -25 21 -21 13 3 19
1 16 -6 -2 -7 -15 -12 -28 -12 -19 0 -25 6 -27 30 -3 19 2 33 13 41 21 15 45
8 45 -14z m320 -12 c0 -55 -51 -72 -72 -24 -11 23 -10 29 11 45 27 22 61 11
61 -21z m176 5 c10 -26 -15 -56 -44 -53 -22 2 -28 9 -30 33 -5 37 21 59 50 44
10 -6 21 -16 24 -24z m104 10 c0 -8 -6 -20 -14 -28 -12 -11 -11 -15 6 -26 19
-12 19 -13 2 -32 -17 -18 -16 -19 14 -19 24 0 30 4 26 15 -4 9 0 15 10 15 20
0 20 17 1 50 -18 32 -18 40 -1 40 7 0 17 -10 21 -22 l8 -23 4 23 c2 12 11 22
19 22 8 0 14 -2 14 -4 0 -13 -43 -97 -53 -103 -7 -5 8 -10 38 -14 28 -3 -258
-5 -635 -5 l-685 1 585 5 c322 3 580 8 573 13 -7 5 -9 17 -4 35 4 15 6 33 3
41 -3 8 3 20 12 27 20 14 56 7 56 -11z m-1320 -9 c0 -13 2 -31 5 -39 4 -10 -2
-14 -24 -15 -40 -1 -50 17 -23 39 12 9 22 20 22 24 0 4 -6 2 -14 -4 -8 -7 -17
-8 -20 -3 -8 13 4 22 31 22 18 0 23 -6 23 -24z m113 3 c-3 -11 -15 -25 -27
-29 l-21 -9 22 0 c32 -1 38 -20 15 -43 -13 -13 -27 -18 -40 -14 -17 6 -19 14
-17 59 1 29 3 53 4 55 0 1 16 2 35 2 30 0 33 -3 29 -21z m165 4 c2 -8 -6 -13
-23 -13 -17 0 -25 -5 -22 -12 2 -7 14 -13 26 -12 25 1 23 -19 -3 -24 -37 -7
-60 40 -34 66 15 15 50 12 56 -5z m653 -25 c5 -31 3 -38 -11 -38 -13 0 -16 7
-12 30 3 18 0 30 -7 30 -6 0 -11 -13 -11 -30 0 -20 -5 -30 -15 -30 -11 0 -15
11 -15 41 0 39 1 40 32 37 29 -3 33 -7 39 -40z m-943 -85 c-38 -2 -98 -2 -135
0 -38 2 -7 3 67 3 74 0 105 -1 68 -3z"/>
<path d="M1758 875 c-9 -21 -8 -28 7 -45 18 -20 55 -28 55 -11 0 5 -7 14 -15
21 -10 9 -15 9 -15 1 0 -6 -5 -11 -11 -11 -6 0 -9 12 -7 28 2 21 8 27 28 27
19 0 25 -5 25 -22 0 -27 18 -35 23 -10 9 48 -69 67 -90 22z"/>
<path d="M1230 692 c0 -12 19 -26 26 -19 2 2 -2 10 -11 17 -9 8 -15 8 -15 2z"/>
<path d="M1166 663 c-3 -3 -6 -35 -6 -70 0 -49 3 -63 15 -63 12 0 15 14 15 64
0 60 -8 84 -24 69z"/>
<path d="M1062 370 c7 -37 133 -56 174 -26 34 26 3 39 -91 40 -71 1 -85 -1
-83 -14z"/>
<path d="M798 635 c2 -14 -1 -32 -8 -40 -10 -12 -10 -15 3 -15 8 0 22 -3 31
-6 12 -5 16 1 16 24 0 43 -9 62 -30 62 -13 0 -16 -6 -12 -25z"/>
<path d="M800 505 c0 -48 0 -48 24 -39 11 4 16 19 16 45 0 32 -3 39 -20 39
-17 0 -20 -7 -20 -45z"/>
<path d="M1717 664 c-4 -4 -7 -25 -7 -46 0 -32 3 -38 21 -38 18 0 20 5 17 42
-3 39 -16 57 -31 42z"/>
<path d="M1412 196 c2 -15 8 -26 13 -26 15 0 12 43 -3 48 -10 3 -13 -4 -10
-22z"/>
<path d="M1585 210 c-8 -13 3 -50 16 -50 12 0 12 47 0 55 -5 3 -12 1 -16 -5z"/>
<path d="M1690 205 c0 -8 5 -15 10 -15 6 0 10 7 10 15 0 8 -4 15 -10 15 -5 0
-10 -7 -10 -15z"/>
<path d="M1685 140 c3 -5 13 -10 21 -10 8 0 14 5 14 10 0 6 -9 10 -21 10 -11
0 -17 -4 -14 -10z"/>
<path d="M385 180 c-3 -5 -1 -10 4 -10 6 0 11 5 11 10 0 6 -2 10 -4 10 -3 0
-8 -4 -11 -10z"/>
<path d="M486 212 c-3 -6 -1 -14 5 -17 15 -10 25 3 12 16 -7 7 -13 7 -17 1z"/>
<path d="M480 140 c0 -5 6 -10 14 -10 8 0 18 5 21 10 3 6 -3 10 -14 10 -12 0
-21 -4 -21 -10z"/>
</g>
</svg>
